<svg xmlns="http://www.w3.org/2000/svg" viewBox="0 0 48 48" fill="none">
  <rect width="48" height="48" rx="10" fill="#0D1B3E"/>
  <circle cx="24" cy="24" r="18" fill="#C8962E" opacity="0.15"/>
  <path d="M33 14c-1.8 0-3.6 1-4.56 2.4L25.56 20.6l-3.6-1.8c-1.2-.6-2.64-.36-3.6.6l-3.6 3.6c-.6.6-.6 1.56 0 2.16l1.8 1.8-1.2 5.4c-.24.96.24 1.92 1.2 2.28l.6.24c.84.36 1.8 0 2.28-.84l2.4-4.2 2.52 1.2c.6.36 1.32.24 1.8-.24l6-6.6c.48-.48.6-1.2.24-1.8L28.8 19.2l1.2-3c.24-.6 0-1.32-.6-1.68-.24-.12-.48-.12-.6-.12" fill="#C8962E"/>
</svg>
